<?xml version="1.0" encoding="UTF-8"?>
<svg id="Layer_2" data-name="Layer 2" xmlns="http://www.w3.org/2000/svg" viewBox="0 0 268.39 270.94">
  <defs>
    <style>
      .cls-1 {
        fill: #fc4e2b;
      }

      .cls-2 {
        fill: #008278;
      }
    </style>
  </defs>
  <g id="Layer_1-2" data-name="Layer 1">
    <g>
      <path class="cls-2" d="M0,37.49v99.75c3.89,.37,7.82,.58,11.81,.58,67.94,0,123.02-55.08,123.02-123.02,0-5.01-.33-9.94-.92-14.8H37.49C16.79,0,0,16.79,0,37.49Z"/>
      <path class="cls-1" d="M230.89,0h-27.24c.37,4.88,.56,9.82,.56,14.8,0,42.77-13.97,82.28-37.57,114.23l8.35,8.35c10.79,10.79,10.79,28.28,0,39.07h0c-10.79,10.79-28.28,10.79-39.07,0l-8.13-8.13c-32.25,24.4-72.42,38.89-115.99,38.89-3.97,0-7.9-.13-11.81-.37v24.05c0,20.71,16.79,37.49,37.49,37.49h63.92c23.26,0,45.57-9.24,62.02-25.69l79.26-79.26c16.45-16.45,25.69-38.76,25.69-62.02V37.49c0-20.71-16.79-37.49-37.49-37.49Z"/>
      <path class="cls-2" d="M237.95,190.77l-51.19,51.19c-10.7,10.7-3.12,28.98,12.01,28.98h51.19c9.38,0,16.98-7.6,16.98-16.98v-51.19c0-15.13-18.29-22.7-28.98-12.01Z"/>
    </g>
  </g>
</svg>